<svg width="1804" height="802" viewBox="0 0 1804 802" fill="none" xmlns="http://www.w3.org/2000/svg">
<g filter="url(#filter0_d_763_168)">
<path d="M1800 559.844L1799.98 643.852C1787.46 631.997 1774.17 602.774 1754.61 608.457C1726.12 623.563 1731.63 528.676 1748.98 517.821C1765.74 507.34 1800 559.844 1800 559.844Z" fill="#51B3EB"/>
</g>
<g filter="url(#filter1_d_763_168)">
<path d="M1799.98 669.371L1799.98 793.256C1798.32 789.725 1796.71 786.083 1795.16 782.341C1774.11 731.703 1771.12 681.853 1788.48 670.999C1791.85 668.891 1795.74 668.409 1799.98 669.371Z" fill="#9BDAFF"/>
</g>
<g filter="url(#filter2_d_763_168)">
<path d="M1723.26 508.337C1731.23 532.51 1726.64 594.394 1716.52 599.42C1706.39 604.446 1691.72 588.925 1683.74 564.752C1675.77 540.579 1662.82 481.136 1672.94 476.11C1685.61 465.058 1708.05 503.271 1723.26 508.337Z" fill="#29A9F2"/>
</g>
<g filter="url(#filter3_d_763_168)">
<path d="M1799.98 466.495V546.413C1797.58 542.082 1795.23 537.455 1792.98 532.584C1777.41 498.868 1772.5 466.185 1782 459.583C1786.27 456.613 1792.74 459.428 1799.98 466.495Z" fill="#29A9F2"/>
</g>
<g filter="url(#filter4_d_763_168)">
<ellipse cx="26.912" cy="64.1712" rx="26.912" ry="64.1712" transform="matrix(0.82125 -0.570569 0.419188 0.9079 1658.6 384.252)" fill="#0082CD"/>
</g>
<g filter="url(#filter5_d_763_168)">
<path d="M1799.98 435.773C1790.62 444.235 1780.11 457.235 1773.92 453.12C1755.98 441.195 1787.99 342.492 1799.98 331.838L1799.98 435.773Z" fill="#0082CD"/>
</g>
<g filter="url(#filter6_d_763_168)">
<path d="M1743.65 649.363C1752.01 673.339 1750.65 697.047 1740.61 702.316C1730.57 707.585 1726.01 688.699 1717.65 664.723C1709.28 640.747 1700.29 620.76 1710.33 615.491C1720.37 610.222 1735.29 625.387 1743.65 649.363Z" fill="#51B3EB"/>
</g>
<g filter="url(#filter7_d_763_168)">
<path d="M1755.06 338.537C1747.38 362.851 1732.89 378.634 1722.71 373.791C1712.53 368.948 1710.51 345.311 1718.19 320.997C1725.88 296.684 1744.88 260.906 1755.07 265.75C1765.25 270.593 1762.75 314.223 1755.06 338.537Z" fill="#0082CD"/>
</g>
<g filter="url(#filter8_d_763_168)">
<path d="M1799.98 308.654C1792.23 322.781 1782.33 330.508 1774.78 326.921C1764.6 322.078 1762.58 298.441 1770.27 274.127C1777.31 251.85 1790.06 236.733 1799.98 238.084L1799.98 308.654Z" fill="#0082CD"/>
</g>
<g filter="url(#filter9_d_763_168)">
<path d="M1767.61 722.39C1771.15 732.547 1770.57 742.59 1766.32 744.822C1762.07 747.055 1760.59 746.094 1757.05 735.937C1753.51 725.781 1737 712.199 1753.49 708.041C1757.75 705.809 1764.07 712.233 1767.61 722.39Z" fill="#51B3EB"/>
</g>
<g filter="url(#filter10_d_763_168)">
<ellipse cx="8.69748" cy="19.4769" rx="8.69748" ry="19.4769" transform="matrix(0.885485 -0.464669 0.329289 0.944229 1747.2 644.752)" fill="#51B3EB"/>
</g>
<g filter="url(#filter11_d_763_168)">
<ellipse cx="8.69748" cy="19.4769" rx="8.69748" ry="19.4769" transform="matrix(0.885485 -0.464669 0.329289 0.944229 1745.79 469.523)" fill="#51B3EB"/>
</g>
<g filter="url(#filter12_d_763_168)">
<path d="M1769.55 385.744C1767.1 401.56 1761.83 454.487 1755.2 452.945C1748.58 451.403 1739.03 409.633 1741.48 393.817C1743.93 378 1767.93 331.419 1774.55 332.961C1781.18 334.503 1774.55 375.257 1769.55 385.744Z" fill="#0082CD"/>
</g>
<path d="M0 61.8685V0C0 0 1760.8 17.8209 1799.36 1.15393V213.35C1799.36 213.414 1799.36 213.479 1799.36 213.546V213.35C1798.85 199.234 1686.38 262.93 1659.5 399.372L1655 451.219L1650.5 462.512L1646 468.672C1593 496.392 1548.94 433.622 1368.77 268.831C1276.14 184.102 957.783 187.253 869.689 158.782C726.743 97.9535 648.698 50.5701 511.692 55.9002C340.84 75.2222 225.247 87.8781 0 61.8685Z" fill="#0082CD"/>
<defs>
<filter id="filter0_d_763_168" x="1730.6" y="516.438" width="73.397" height="135.414" filterUnits="userSpaceOnUse" color-interpolation-filters="sRGB">
<feFlood flood-opacity="0" result="BackgroundImageFix"/>
<feColorMatrix in="SourceAlpha" type="matrix" values="0 0 0 0 0 0 0 0 0 0 0 0 0 0 0 0 0 0 127 0" result="hardAlpha"/>
<feOffset dy="4"/>
<feGaussianBlur stdDeviation="2"/>
<feComposite in2="hardAlpha" operator="out"/>
<feColorMatrix type="matrix" values="0 0 0 0 0 0 0 0 0 0 0 0 0 0 0 0 0 0 0.5 0"/>
<feBlend mode="normal" in2="BackgroundImageFix" result="effect1_dropShadow_763_168"/>
<feBlend mode="normal" in="SourceGraphic" in2="effect1_dropShadow_763_168" result="shape"/>
</filter>
<filter id="filter1_d_763_168" x="1773.19" y="668.896" width="30.7861" height="132.359" filterUnits="userSpaceOnUse" color-interpolation-filters="sRGB">
<feFlood flood-opacity="0" result="BackgroundImageFix"/>
<feColorMatrix in="SourceAlpha" type="matrix" values="0 0 0 0 0 0 0 0 0 0 0 0 0 0 0 0 0 0 127 0" result="hardAlpha"/>
<feOffset dy="4"/>
<feGaussianBlur stdDeviation="2"/>
<feComposite in2="hardAlpha" operator="out"/>
<feColorMatrix type="matrix" values="0 0 0 0 0 0 0 0 0 0 0 0 0 0 0 0 0 0 0.5 0"/>
<feBlend mode="normal" in2="BackgroundImageFix" result="effect1_dropShadow_763_168"/>
<feBlend mode="normal" in="SourceGraphic" in2="effect1_dropShadow_763_168" result="shape"/>
</filter>
<filter id="filter2_d_763_168" x="1665.23" y="474.113" width="66.0859" height="134.252" filterUnits="userSpaceOnUse" color-interpolation-filters="sRGB">
<feFlood flood-opacity="0" result="BackgroundImageFix"/>
<feColorMatrix in="SourceAlpha" type="matrix" values="0 0 0 0 0 0 0 0 0 0 0 0 0 0 0 0 0 0 127 0" result="hardAlpha"/>
<feOffset dy="4"/>
<feGaussianBlur stdDeviation="2"/>
<feComposite in2="hardAlpha" operator="out"/>
<feColorMatrix type="matrix" values="0 0 0 0 0 0 0 0 0 0 0 0 0 0 0 0 0 0 0.5 0"/>
<feBlend mode="normal" in2="BackgroundImageFix" result="effect1_dropShadow_763_168"/>
<feBlend mode="normal" in="SourceGraphic" in2="effect1_dropShadow_763_168" result="shape"/>
</filter>
<filter id="filter3_d_763_168" x="1773.16" y="458.412" width="30.8198" height="96" filterUnits="userSpaceOnUse" color-interpolation-filters="sRGB">
<feFlood flood-opacity="0" result="BackgroundImageFix"/>
<feColorMatrix in="SourceAlpha" type="matrix" values="0 0 0 0 0 0 0 0 0 0 0 0 0 0 0 0 0 0 127 0" result="hardAlpha"/>
<feOffset dy="4"/>
<feGaussianBlur stdDeviation="2"/>
<feComposite in2="hardAlpha" operator="out"/>
<feColorMatrix type="matrix" values="0 0 0 0 0 0 0 0 0 0 0 0 0 0 0 0 0 0 0.5 0"/>
<feBlend mode="normal" in2="BackgroundImageFix" result="effect1_dropShadow_763_168"/>
<feBlend mode="normal" in="SourceGraphic" in2="effect1_dropShadow_763_168" result="shape"/>
</filter>
<filter id="filter4_d_763_168" x="1668.78" y="366.893" width="77.6313" height="128.531" filterUnits="userSpaceOnUse" color-interpolation-filters="sRGB">
<feFlood flood-opacity="0" result="BackgroundImageFix"/>
<feColorMatrix in="SourceAlpha" type="matrix" values="0 0 0 0 0 0 0 0 0 0 0 0 0 0 0 0 0 0 127 0" result="hardAlpha"/>
<feOffset dy="4"/>
<feGaussianBlur stdDeviation="2"/>
<feComposite in2="hardAlpha" operator="out"/>
<feColorMatrix type="matrix" values="0 0 0 0 0 0 0 0 0 0 0 0 0 0 0 0 0 0 0.5 0"/>
<feBlend mode="normal" in2="BackgroundImageFix" result="effect1_dropShadow_763_168"/>
<feBlend mode="normal" in="SourceGraphic" in2="effect1_dropShadow_763_168" result="shape"/>
</filter>
<filter id="filter5_d_763_168" x="1764.58" y="331.838" width="39.3975" height="130.066" filterUnits="userSpaceOnUse" color-interpolation-filters="sRGB">
<feFlood flood-opacity="0" result="BackgroundImageFix"/>
<feColorMatrix in="SourceAlpha" type="matrix" values="0 0 0 0 0 0 0 0 0 0 0 0 0 0 0 0 0 0 127 0" result="hardAlpha"/>
<feOffset dy="4"/>
<feGaussianBlur stdDeviation="2"/>
<feComposite in2="hardAlpha" operator="out"/>
<feColorMatrix type="matrix" values="0 0 0 0 0 0 0 0 0 0 0 0 0 0 0 0 0 0 0.5 0"/>
<feBlend mode="normal" in2="BackgroundImageFix" result="effect1_dropShadow_763_168"/>
<feBlend mode="normal" in="SourceGraphic" in2="effect1_dropShadow_763_168" result="shape"/>
</filter>
<filter id="filter6_d_763_168" x="1701.89" y="614.445" width="51.2354" height="96.7598" filterUnits="userSpaceOnUse" color-interpolation-filters="sRGB">
<feFlood flood-opacity="0" result="BackgroundImageFix"/>
<feColorMatrix in="SourceAlpha" type="matrix" values="0 0 0 0 0 0 0 0 0 0 0 0 0 0 0 0 0 0 127 0" result="hardAlpha"/>
<feOffset dy="4"/>
<feGaussianBlur stdDeviation="2"/>
<feComposite in2="hardAlpha" operator="out"/>
<feColorMatrix type="matrix" values="0 0 0 0 0 0 0 0 0 0 0 0 0 0 0 0 0 0 0.5 0"/>
<feBlend mode="normal" in2="BackgroundImageFix" result="effect1_dropShadow_763_168"/>
<feBlend mode="normal" in="SourceGraphic" in2="effect1_dropShadow_763_168" result="shape"/>
</filter>
<filter id="filter7_d_763_168" x="1709.53" y="265.305" width="56.2695" height="117.359" filterUnits="userSpaceOnUse" color-interpolation-filters="sRGB">
<feFlood flood-opacity="0" result="BackgroundImageFix"/>
<feColorMatrix in="SourceAlpha" type="matrix" values="0 0 0 0 0 0 0 0 0 0 0 0 0 0 0 0 0 0 127 0" result="hardAlpha"/>
<feOffset dy="4"/>
<feGaussianBlur stdDeviation="2"/>
<feComposite in2="hardAlpha" operator="out"/>
<feColorMatrix type="matrix" values="0 0 0 0 0 0 0 0 0 0 0 0 0 0 0 0 0 0 0.5 0"/>
<feBlend mode="normal" in2="BackgroundImageFix" result="effect1_dropShadow_763_168"/>
<feBlend mode="normal" in="SourceGraphic" in2="effect1_dropShadow_763_168" result="shape"/>
</filter>
<filter id="filter8_d_763_168" x="1761.6" y="238" width="42.3765" height="97.7949" filterUnits="userSpaceOnUse" color-interpolation-filters="sRGB">
<feFlood flood-opacity="0" result="BackgroundImageFix"/>
<feColorMatrix in="SourceAlpha" type="matrix" values="0 0 0 0 0 0 0 0 0 0 0 0 0 0 0 0 0 0 127 0" result="hardAlpha"/>
<feOffset dy="4"/>
<feGaussianBlur stdDeviation="2"/>
<feComposite in2="hardAlpha" operator="out"/>
<feColorMatrix type="matrix" values="0 0 0 0 0 0 0 0 0 0 0 0 0 0 0 0 0 0 0.5 0"/>
<feBlend mode="normal" in2="BackgroundImageFix" result="effect1_dropShadow_763_168"/>
<feBlend mode="normal" in="SourceGraphic" in2="effect1_dropShadow_763_168" result="shape"/>
</filter>
<filter id="filter9_d_763_168" x="1742.29" y="707.598" width="31.6401" height="46.2168" filterUnits="userSpaceOnUse" color-interpolation-filters="sRGB">
<feFlood flood-opacity="0" result="BackgroundImageFix"/>
<feColorMatrix in="SourceAlpha" type="matrix" values="0 0 0 0 0 0 0 0 0 0 0 0 0 0 0 0 0 0 127 0" result="hardAlpha"/>
<feOffset dy="4"/>
<feGaussianBlur stdDeviation="2"/>
<feComposite in2="hardAlpha" operator="out"/>
<feColorMatrix type="matrix" values="0 0 0 0 0 0 0 0 0 0 0 0 0 0 0 0 0 0 0.5 0"/>
<feBlend mode="normal" in2="BackgroundImageFix" result="effect1_dropShadow_763_168"/>
<feBlend mode="normal" in="SourceGraphic" in2="effect1_dropShadow_763_168" result="shape"/>
</filter>
<filter id="filter10_d_763_168" x="1747.29" y="640.268" width="28.0454" height="45.668" filterUnits="userSpaceOnUse" color-interpolation-filters="sRGB">
<feFlood flood-opacity="0" result="BackgroundImageFix"/>
<feColorMatrix in="SourceAlpha" type="matrix" values="0 0 0 0 0 0 0 0 0 0 0 0 0 0 0 0 0 0 127 0" result="hardAlpha"/>
<feOffset dy="4"/>
<feGaussianBlur stdDeviation="2"/>
<feComposite in2="hardAlpha" operator="out"/>
<feColorMatrix type="matrix" values="0 0 0 0 0 0 0 0 0 0 0 0 0 0 0 0 0 0 0.5 0"/>
<feBlend mode="normal" in2="BackgroundImageFix" result="effect1_dropShadow_763_168"/>
<feBlend mode="normal" in="SourceGraphic" in2="effect1_dropShadow_763_168" result="shape"/>
</filter>
<filter id="filter11_d_763_168" x="1745.89" y="465.039" width="28.0454" height="45.668" filterUnits="userSpaceOnUse" color-interpolation-filters="sRGB">
<feFlood flood-opacity="0" result="BackgroundImageFix"/>
<feColorMatrix in="SourceAlpha" type="matrix" values="0 0 0 0 0 0 0 0 0 0 0 0 0 0 0 0 0 0 127 0" result="hardAlpha"/>
<feOffset dy="4"/>
<feGaussianBlur stdDeviation="2"/>
<feComposite in2="hardAlpha" operator="out"/>
<feColorMatrix type="matrix" values="0 0 0 0 0 0 0 0 0 0 0 0 0 0 0 0 0 0 0.5 0"/>
<feBlend mode="normal" in2="BackgroundImageFix" result="effect1_dropShadow_763_168"/>
<feBlend mode="normal" in="SourceGraphic" in2="effect1_dropShadow_763_168" result="shape"/>
</filter>
<filter id="filter12_d_763_168" x="1737.09" y="332.924" width="44.2515" height="128.055" filterUnits="userSpaceOnUse" color-interpolation-filters="sRGB">
<feFlood flood-opacity="0" result="BackgroundImageFix"/>
<feColorMatrix in="SourceAlpha" type="matrix" values="0 0 0 0 0 0 0 0 0 0 0 0 0 0 0 0 0 0 127 0" result="hardAlpha"/>
<feOffset dy="4"/>
<feGaussianBlur stdDeviation="2"/>
<feComposite in2="hardAlpha" operator="out"/>
<feColorMatrix type="matrix" values="0 0 0 0 0 0 0 0 0 0 0 0 0 0 0 0 0 0 0.5 0"/>
<feBlend mode="normal" in2="BackgroundImageFix" result="effect1_dropShadow_763_168"/>
<feBlend mode="normal" in="SourceGraphic" in2="effect1_dropShadow_763_168" result="shape"/>
</filter>
</defs>
</svg>
