<svg width="1795" height="172" viewBox="0 0 1795 172" fill="none" xmlns="http://www.w3.org/2000/svg">
<path fill-rule="evenodd" clip-rule="evenodd" d="M12.1892 62.9398C7.86434 60.8673 3.85248 58.9448 0 57.263V172C224.998 172 482.406 165.602 653.181 165.602C727.496 165.602 897.796 169.069 983.898 165.602C1120.01 165.602 1323.19 165.602 1512.66 165.602C1697.77 161.085 1498.33 165.602 1795 165.602V68.9495C1779.26 66.1596 1762.45 63.9 1744.52 62.2096C1711.05 59.055 1684.54 49.1368 1655.09 38.1197C1593.78 15.185 1519.74 -12.5119 1343.76 6.13157C1218.63 32.2881 1117.02 46.5411 1033.96 53.2623L910.976 58.2356C812.143 57.7013 751.119 44.9814 709.485 36.3029C699.179 34.1546 690.06 32.2539 681.851 30.847C559.869 9.94345 446.589 40.1678 348.254 66.4045C286.403 82.907 230.464 97.8318 181.993 97.4641C82.661 96.7106 40.6488 76.5779 12.1892 62.9398ZM950.786 57.8088C961.433 57.5302 972.464 57.115 983.898 56.548L950.786 57.8088Z" fill="#0082CD"/>
</svg>
